<svg width="271" height="107" viewBox="0 0 271 107" fill="none" xmlns="http://www.w3.org/2000/svg">
<path d="M37.52 21.352V22.472C36.2507 22.5093 35.28 22.696 34.608 23.032C33.9733 23.368 33.544 23.9093 33.32 24.656C33.096 25.4027 32.984 26.4667 32.984 27.848V61.28C32.76 61.28 32.536 61.28 32.312 61.28C32.1253 61.28 31.92 61.28 31.696 61.28L8.176 24.936V54.504C8.176 55.848 8.288 56.912 8.512 57.696C8.77333 58.4427 9.25867 58.984 9.968 59.32C10.7147 59.6187 11.816 59.8053 13.272 59.88V61C12.6 60.9253 11.7227 60.888 10.64 60.888C9.55733 60.8507 8.53067 60.832 7.56 60.832C6.62667 60.832 5.67467 60.8507 4.704 60.888C3.77067 60.888 2.98667 60.9253 2.352 61V59.88C3.62133 59.8053 4.57333 59.6187 5.208 59.32C5.88 58.984 6.328 58.4427 6.552 57.696C6.776 56.912 6.888 55.848 6.888 54.504V27.288C6.888 25.9067 6.776 24.8987 6.552 24.264C6.328 23.592 5.88 23.144 5.208 22.92C4.57333 22.6587 3.62133 22.5093 2.352 22.472V21.352C2.98667 21.3893 3.77067 21.4267 4.704 21.464C5.67467 21.5013 6.62667 21.52 7.56 21.52C8.38133 21.52 9.16533 21.5013 9.912 21.464C10.6587 21.4267 11.3307 21.3893 11.928 21.352L31.696 51.816V27.848C31.696 26.4667 31.5653 25.4027 31.304 24.656C31.08 23.9093 30.5947 23.368 29.848 23.032C29.1387 22.696 28.056 22.5093 26.6 22.472V21.352C27.272 21.3893 28.1493 21.4267 29.232 21.464C30.352 21.5013 31.3787 21.52 32.312 21.52C33.2827 21.52 34.2347 21.5013 35.168 21.464C36.1387 21.4267 36.9227 21.3893 37.52 21.352ZM73.9323 20.568C77.4789 20.568 80.5776 21.3707 83.2283 22.976C85.9163 24.5813 87.9883 26.896 89.4443 29.92C90.9376 32.9067 91.6843 36.5467 91.6843 40.84C91.6843 45.0213 90.9189 48.68 89.3883 51.816C87.8949 54.952 85.8043 57.3973 83.1163 59.152C80.4283 60.9067 77.3483 61.784 73.8763 61.784C70.3296 61.784 67.2123 60.9813 64.5243 59.376C61.8736 57.7707 59.8016 55.456 58.3083 52.432C56.8523 49.408 56.1243 45.768 56.1243 41.512C56.1243 37.3307 56.8896 33.672 58.4203 30.536C59.9509 27.4 62.0416 24.9547 64.6923 23.2C67.3803 21.4453 70.4603 20.568 73.9323 20.568ZM73.7083 21.576C71.2816 21.576 69.1723 22.416 67.3803 24.096C65.5883 25.776 64.1883 28.0907 63.1803 31.04C62.2096 33.9893 61.7243 37.4053 61.7243 41.288C61.7243 45.2453 62.2656 48.6987 63.3483 51.648C64.4683 54.56 65.9616 56.8187 67.8283 58.424C69.7323 59.992 71.8229 60.776 74.1003 60.776C76.5269 60.776 78.6363 59.936 80.4283 58.256C82.2203 56.576 83.6016 54.2613 84.5723 51.312C85.5803 48.3253 86.0842 44.9093 86.0842 41.064C86.0842 37.0693 85.5243 33.616 84.4043 30.704C83.3216 27.792 81.8469 25.552 79.9803 23.984C78.1136 22.3787 76.0229 21.576 73.7083 21.576ZM125.877 21.072L139.541 56.296C140.101 57.7147 140.736 58.6667 141.445 59.152C142.154 59.6 142.808 59.8427 143.405 59.88V61C142.658 60.9253 141.744 60.888 140.661 60.888C139.578 60.8507 138.496 60.832 137.413 60.832C135.957 60.832 134.594 60.8507 133.325 60.888C132.056 60.888 131.029 60.9253 130.245 61V59.88C132.149 59.8053 133.362 59.488 133.885 58.928C134.408 58.3307 134.296 57.08 133.549 55.176L123.133 27.344L124.029 26.616L114.285 51.928C113.688 53.4213 113.333 54.6907 113.221 55.736C113.109 56.744 113.202 57.5467 113.501 58.144C113.837 58.7413 114.378 59.1707 115.125 59.432C115.909 59.6933 116.88 59.8427 118.037 59.88V61C116.992 60.9253 115.89 60.888 114.733 60.888C113.613 60.8507 112.568 60.832 111.597 60.832C110.664 60.832 109.861 60.8507 109.189 60.888C108.554 60.888 107.957 60.9253 107.397 61V59.88C108.144 59.6933 108.909 59.264 109.693 58.592C110.477 57.8827 111.186 56.688 111.821 55.008L124.981 21.072C125.13 21.072 125.28 21.072 125.429 21.072C125.578 21.072 125.728 21.072 125.877 21.072ZM132.709 44.872V45.992H116.021L116.581 44.872H132.709ZM181.729 61V59.88C182.998 59.8053 183.95 59.656 184.585 59.432C185.257 59.208 185.705 58.76 185.929 58.088C186.153 57.416 186.265 56.408 186.265 55.064V27.288C186.265 25.9067 186.153 24.8987 185.929 24.264C185.705 23.592 185.257 23.144 184.585 22.92C183.95 22.6587 182.998 22.5093 181.729 22.472V21.352C182.587 21.3893 183.67 21.4267 184.977 21.464C186.283 21.5013 187.571 21.52 188.841 21.52C190.297 21.52 191.659 21.5013 192.929 21.464C194.198 21.4267 195.225 21.3893 196.009 21.352V22.472C194.739 22.5093 193.769 22.6587 193.097 22.92C192.462 23.144 192.033 23.592 191.809 24.264C191.585 24.8987 191.473 25.9067 191.473 27.288V55.064C191.473 56.408 191.585 57.416 191.809 58.088C192.033 58.76 192.462 59.208 193.097 59.432C193.769 59.656 194.739 59.8053 196.009 59.88V61C195.225 60.9253 194.198 60.888 192.929 60.888C191.659 60.8507 190.297 60.832 188.841 60.832C187.571 60.832 186.283 60.8507 184.977 60.888C183.67 60.888 182.587 60.9253 181.729 61ZM158.321 61V59.88C159.59 59.8053 160.542 59.656 161.177 59.432C161.849 59.208 162.297 58.76 162.521 58.088C162.745 57.416 162.857 56.408 162.857 55.064V27.288C162.857 25.9067 162.745 24.8987 162.521 24.264C162.297 23.592 161.849 23.144 161.177 22.92C160.542 22.6587 159.59 22.5093 158.321 22.472V21.352C159.105 21.3893 160.131 21.4267 161.401 21.464C162.67 21.5013 164.033 21.52 165.489 21.52C166.795 21.52 168.083 21.5013 169.353 21.464C170.659 21.4267 171.742 21.3893 172.601 21.352V22.472C171.331 22.5093 170.361 22.6587 169.689 22.92C169.054 23.144 168.625 23.592 168.401 24.264C168.177 24.8987 168.065 25.9067 168.065 27.288V55.064C168.065 56.408 168.177 57.416 168.401 58.088C168.625 58.76 169.054 59.208 169.689 59.432C170.361 59.656 171.331 59.8053 172.601 59.88V61C171.742 60.9253 170.659 60.888 169.353 60.888C168.083 60.8507 166.795 60.832 165.489 60.832C164.033 60.832 162.67 60.8507 161.401 60.888C160.131 60.888 159.105 60.9253 158.321 61ZM166.105 41.624V40.504H188.225V41.624H166.105ZM218.96 20.568C219.781 20.568 220.453 20.736 220.976 21.072C221.498 21.408 221.928 21.8373 222.264 22.36C222.674 22.9573 222.936 23.6107 223.048 24.32C223.16 25.0293 223.216 25.608 223.216 26.056C223.216 27.8853 222.749 29.5467 221.816 31.04C220.882 32.5333 219.426 33.7467 217.448 34.68L216.944 33.672C218.101 33.1867 219.09 32.4213 219.912 31.376C220.77 30.3307 221.2 29.2667 221.2 28.184C221.2 27.736 221.144 27.344 221.032 27.008C220.434 27.4933 219.744 27.736 218.96 27.736C217.989 27.736 217.149 27.4187 216.44 26.784C215.73 26.1493 215.376 25.272 215.376 24.152C215.376 23.1067 215.73 22.248 216.44 21.576C217.149 20.904 217.989 20.568 218.96 20.568ZM254.414 20.736C256.281 20.736 257.699 20.96 258.67 21.408C259.641 21.8187 260.499 22.2853 261.246 22.808C261.694 23.0693 262.049 23.2747 262.31 23.424C262.609 23.536 262.889 23.592 263.15 23.592C263.523 23.592 263.785 23.3867 263.934 22.976C264.121 22.5653 264.27 21.9493 264.382 21.128H265.67C265.633 21.7627 265.577 22.528 265.502 23.424C265.465 24.2827 265.427 25.44 265.39 26.896C265.39 28.3147 265.39 30.2 265.39 32.552H264.102C263.99 30.76 263.598 29.0427 262.926 27.4C262.254 25.7573 261.265 24.4133 259.958 23.368C258.689 22.3227 257.009 21.8 254.918 21.8C252.939 21.8 251.297 22.3973 249.99 23.592C248.721 24.7867 248.086 26.3547 248.086 28.296C248.086 29.976 248.515 31.3947 249.374 32.552C250.233 33.672 251.371 34.6987 252.79 35.632C254.246 36.528 255.814 37.4987 257.494 38.544C259.435 39.7387 261.153 40.9333 262.646 42.128C264.177 43.2853 265.371 44.5733 266.23 45.992C267.126 47.4107 267.574 49.128 267.574 51.144C267.574 53.5333 267.033 55.512 265.95 57.08C264.867 58.648 263.43 59.824 261.638 60.608C259.846 61.392 257.867 61.784 255.702 61.784C253.723 61.784 252.155 61.56 250.998 61.112C249.841 60.664 248.851 60.1973 248.03 59.712C247.209 59.1893 246.574 58.928 246.126 58.928C245.753 58.928 245.473 59.1333 245.286 59.544C245.137 59.9547 245.006 60.5707 244.894 61.392H243.606C243.681 60.608 243.718 59.6933 243.718 58.648C243.755 57.5653 243.774 56.1653 243.774 54.448C243.811 52.7307 243.83 50.5653 243.83 47.952H245.118C245.267 50.192 245.678 52.2827 246.35 54.224C247.059 56.1653 248.123 57.7333 249.542 58.928C250.998 60.0853 252.921 60.664 255.31 60.664C256.542 60.664 257.699 60.4213 258.782 59.936C259.902 59.4133 260.817 58.6107 261.526 57.528C262.235 56.408 262.59 54.9707 262.59 53.216C262.59 51.6853 262.217 50.36 261.47 49.24C260.761 48.0827 259.753 47.0187 258.446 46.048C257.139 45.04 255.609 44.0133 253.854 42.968C252.099 41.8853 250.457 40.784 248.926 39.664C247.395 38.544 246.163 37.256 245.23 35.8C244.334 34.3067 243.886 32.5147 243.886 30.424C243.886 28.2213 244.371 26.4107 245.342 24.992C246.35 23.536 247.657 22.472 249.262 21.8C250.867 21.0907 252.585 20.736 254.414 20.736Z" fill="#1C2B01"/>
<path d="M59.904 83.672C60.96 83.672 61.824 83.832 62.496 84.152C63.184 84.456 63.792 84.816 64.32 85.232C64.64 85.472 64.88 85.504 65.04 85.328C65.216 85.136 65.336 84.696 65.4 84.008H65.952C65.92 84.6 65.896 85.32 65.88 86.168C65.864 87.016 65.856 88.136 65.856 89.528H65.304C65.192 88.84 65.088 88.296 64.992 87.896C64.896 87.48 64.776 87.128 64.632 86.84C64.504 86.552 64.328 86.264 64.104 85.976C63.608 85.32 62.984 84.848 62.232 84.56C61.48 84.256 60.688 84.104 59.856 84.104C59.072 84.104 58.36 84.304 57.72 84.704C57.096 85.088 56.552 85.648 56.088 86.384C55.64 87.12 55.288 88.008 55.032 89.048C54.792 90.088 54.672 91.256 54.672 92.552C54.672 93.896 54.808 95.088 55.08 96.128C55.352 97.152 55.728 98.016 56.208 98.72C56.704 99.424 57.28 99.96 57.936 100.328C58.608 100.68 59.328 100.856 60.096 100.856C60.816 100.856 61.568 100.712 62.352 100.424C63.136 100.136 63.752 99.672 64.2 99.032C64.552 98.568 64.792 98.064 64.92 97.52C65.064 96.976 65.192 96.216 65.304 95.24H65.856C65.856 96.696 65.864 97.872 65.88 98.768C65.896 99.648 65.92 100.392 65.952 101H65.4C65.336 100.312 65.224 99.88 65.064 99.704C64.92 99.528 64.672 99.552 64.32 99.776C63.728 100.192 63.096 100.56 62.424 100.88C61.768 101.184 60.92 101.336 59.88 101.336C58.36 101.336 57.024 100.992 55.872 100.304C54.736 99.616 53.848 98.624 53.208 97.328C52.584 96.032 52.272 94.472 52.272 92.648C52.272 90.856 52.6 89.288 53.256 87.944C53.912 86.6 54.808 85.552 55.944 84.8C57.096 84.048 58.416 83.672 59.904 83.672ZM80.5074 83.672C82.0274 83.672 83.3554 84.016 84.4914 84.704C85.6434 85.392 86.5314 86.384 87.1554 87.68C87.7954 88.96 88.1154 90.52 88.1154 92.36C88.1154 94.152 87.7874 95.72 87.1314 97.064C86.4914 98.408 85.5954 99.456 84.4434 100.208C83.2914 100.96 81.9714 101.336 80.4834 101.336C78.9634 101.336 77.6274 100.992 76.4754 100.304C75.3394 99.616 74.4514 98.624 73.8114 97.328C73.1874 96.032 72.8754 94.472 72.8754 92.648C72.8754 90.856 73.2034 89.288 73.8594 87.944C74.5154 86.6 75.4114 85.552 76.5474 84.8C77.6994 84.048 79.0194 83.672 80.5074 83.672ZM80.4114 84.104C79.3714 84.104 78.4674 84.464 77.6994 85.184C76.9314 85.904 76.3314 86.896 75.8994 88.16C75.4834 89.424 75.2754 90.888 75.2754 92.552C75.2754 94.248 75.5074 95.728 75.9714 96.992C76.4514 98.24 77.0914 99.208 77.8914 99.896C78.7074 100.568 79.6034 100.904 80.5794 100.904C81.6194 100.904 82.5234 100.544 83.2914 99.824C84.0594 99.104 84.6514 98.112 85.0674 96.848C85.4994 95.568 85.7154 94.104 85.7154 92.456C85.7154 90.744 85.4754 89.264 84.9954 88.016C84.5314 86.768 83.8994 85.808 83.0994 85.136C82.2994 84.448 81.4034 84.104 80.4114 84.104ZM102.377 83.672C103.897 83.672 105.225 84.016 106.36 84.704C107.513 85.392 108.401 86.384 109.024 87.68C109.665 88.96 109.985 90.52 109.985 92.36C109.985 94.152 109.657 95.72 109.001 97.064C108.361 98.408 107.465 99.456 106.313 100.208C105.161 100.96 103.841 101.336 102.352 101.336C100.832 101.336 99.4965 100.992 98.3445 100.304C97.2085 99.616 96.3205 98.624 95.6805 97.328C95.0565 96.032 94.7445 94.472 94.7445 92.648C94.7445 90.856 95.0725 89.288 95.7285 87.944C96.3845 86.6 97.2805 85.552 98.4165 84.8C99.5685 84.048 100.889 83.672 102.377 83.672ZM102.281 84.104C101.241 84.104 100.337 84.464 99.5685 85.184C98.8005 85.904 98.2005 86.896 97.7685 88.16C97.3525 89.424 97.1445 90.888 97.1445 92.552C97.1445 94.248 97.3765 95.728 97.8405 96.992C98.3205 98.24 98.9605 99.208 99.7605 99.896C100.577 100.568 101.473 100.904 102.449 100.904C103.489 100.904 104.393 100.544 105.161 99.824C105.929 99.104 106.521 98.112 106.937 96.848C107.369 95.568 107.584 94.104 107.584 92.456C107.584 90.744 107.345 89.264 106.865 88.016C106.401 86.768 105.769 85.808 104.969 85.136C104.169 84.448 103.273 84.104 102.281 84.104ZM129.914 84.008V84.488C129.418 84.552 128.938 84.712 128.474 84.968C128.01 85.224 127.546 85.648 127.082 86.24L122.45 92.168L122.978 90.992L128.738 99.056C129.01 99.456 129.306 99.768 129.626 99.992C129.946 100.216 130.354 100.392 130.85 100.52V101C130.466 100.968 129.986 100.952 129.41 100.952C128.85 100.936 128.37 100.928 127.97 100.928C127.698 100.928 127.362 100.936 126.962 100.952C126.578 100.952 126.09 100.968 125.498 101V100.52C126.042 100.488 126.386 100.392 126.53 100.232C126.674 100.072 126.618 99.808 126.362 99.44L122.858 94.16C122.538 93.664 122.25 93.296 121.994 93.056C121.754 92.8 121.498 92.632 121.226 92.552C120.97 92.472 120.642 92.424 120.242 92.408V91.928C120.914 91.912 121.474 91.784 121.922 91.544C122.386 91.288 122.77 90.968 123.074 90.584L125.378 87.656C125.906 86.984 126.266 86.416 126.458 85.952C126.65 85.488 126.642 85.136 126.434 84.896C126.226 84.64 125.786 84.504 125.114 84.488V84.008C125.418 84.024 125.73 84.04 126.05 84.056C126.37 84.056 126.682 84.064 126.986 84.08C127.306 84.08 127.602 84.08 127.874 84.08C128.29 84.08 128.674 84.072 129.026 84.056C129.378 84.04 129.674 84.024 129.914 84.008ZM122.282 84.008V84.488C121.738 84.504 121.322 84.568 121.034 84.68C120.762 84.776 120.578 84.968 120.482 85.256C120.386 85.528 120.338 85.96 120.338 86.552V98.456C120.338 99.032 120.386 99.464 120.482 99.752C120.578 100.04 120.762 100.232 121.034 100.328C121.322 100.424 121.738 100.488 122.282 100.52V101C121.914 100.968 121.45 100.952 120.89 100.952C120.346 100.936 119.794 100.928 119.234 100.928C118.61 100.928 118.026 100.936 117.482 100.952C116.938 100.952 116.498 100.968 116.162 101V100.52C116.706 100.488 117.114 100.424 117.386 100.328C117.674 100.232 117.866 100.04 117.962 99.752C118.058 99.464 118.106 99.032 118.106 98.456V86.552C118.106 85.96 118.058 85.528 117.962 85.256C117.866 84.968 117.674 84.776 117.386 84.68C117.114 84.568 116.706 84.504 116.162 84.488V84.008C116.498 84.024 116.938 84.04 117.482 84.056C118.026 84.072 118.61 84.08 119.234 84.08C119.794 84.08 120.346 84.072 120.89 84.056C121.45 84.04 121.914 84.024 122.282 84.008ZM135.969 84.008C136.305 84.024 136.745 84.04 137.289 84.056C137.833 84.072 138.369 84.08 138.897 84.08C139.649 84.08 140.369 84.072 141.057 84.056C141.745 84.04 142.233 84.032 142.521 84.032C144.201 84.032 145.465 84.384 146.313 85.088C147.161 85.792 147.585 86.696 147.585 87.8C147.585 88.36 147.465 88.912 147.225 89.456C147.001 89.984 146.617 90.472 146.073 90.92C145.545 91.352 144.833 91.704 143.937 91.976V92.024C145.201 92.184 146.185 92.488 146.889 92.936C147.609 93.368 148.113 93.88 148.401 94.472C148.689 95.064 148.833 95.688 148.833 96.344C148.833 97.256 148.601 98.064 148.137 98.768C147.689 99.456 147.033 100 146.169 100.4C145.305 100.8 144.273 101 143.073 101C142.721 101 142.193 100.992 141.489 100.976C140.785 100.944 139.937 100.928 138.945 100.928C138.385 100.928 137.833 100.936 137.289 100.952C136.745 100.952 136.305 100.968 135.969 101V100.52C136.513 100.488 136.921 100.424 137.193 100.328C137.481 100.232 137.673 100.04 137.769 99.752C137.865 99.464 137.913 99.032 137.913 98.456V86.552C137.913 85.96 137.865 85.528 137.769 85.256C137.673 84.968 137.481 84.776 137.193 84.68C136.921 84.568 136.513 84.504 135.969 84.488V84.008ZM141.921 84.488C141.185 84.488 140.705 84.624 140.481 84.896C140.257 85.168 140.145 85.72 140.145 86.552V98.456C140.145 99.016 140.193 99.44 140.289 99.728C140.385 100.016 140.561 100.208 140.817 100.304C141.073 100.4 141.449 100.448 141.945 100.448C143.513 100.448 144.649 100.088 145.353 99.368C146.073 98.632 146.433 97.592 146.433 96.248C146.433 95.016 146.097 94.064 145.425 93.392C144.769 92.72 143.681 92.384 142.161 92.384H139.689C139.689 92.384 139.689 92.32 139.689 92.192C139.689 92.048 139.689 91.976 139.689 91.976H141.753C142.697 91.976 143.425 91.8 143.937 91.448C144.449 91.08 144.801 90.6 144.993 90.008C145.185 89.4 145.281 88.752 145.281 88.064C145.281 86.88 145.017 85.992 144.489 85.4C143.977 84.792 143.121 84.488 141.921 84.488ZM162.898 83.672C164.418 83.672 165.746 84.016 166.882 84.704C168.034 85.392 168.922 86.384 169.546 87.68C170.186 88.96 170.506 90.52 170.506 92.36C170.506 94.152 170.178 95.72 169.522 97.064C168.882 98.408 167.986 99.456 166.834 100.208C165.682 100.96 164.362 101.336 162.874 101.336C161.354 101.336 160.018 100.992 158.866 100.304C157.73 99.616 156.842 98.624 156.202 97.328C155.578 96.032 155.266 94.472 155.266 92.648C155.266 90.856 155.594 89.288 156.25 87.944C156.906 86.6 157.802 85.552 158.938 84.8C160.09 84.048 161.41 83.672 162.898 83.672ZM162.802 84.104C161.762 84.104 160.858 84.464 160.09 85.184C159.322 85.904 158.722 86.896 158.29 88.16C157.874 89.424 157.666 90.888 157.666 92.552C157.666 94.248 157.898 95.728 158.362 96.992C158.842 98.24 159.482 99.208 160.282 99.896C161.098 100.568 161.994 100.904 162.97 100.904C164.01 100.904 164.914 100.544 165.682 99.824C166.45 99.104 167.042 98.112 167.458 96.848C167.89 95.568 168.106 94.104 168.106 92.456C168.106 90.744 167.866 89.264 167.386 88.016C166.922 86.768 166.29 85.808 165.49 85.136C164.69 84.448 163.794 84.104 162.802 84.104ZM184.767 83.672C186.287 83.672 187.615 84.016 188.751 84.704C189.903 85.392 190.791 86.384 191.415 87.68C192.055 88.96 192.375 90.52 192.375 92.36C192.375 94.152 192.047 95.72 191.391 97.064C190.751 98.408 189.855 99.456 188.703 100.208C187.551 100.96 186.231 101.336 184.743 101.336C183.223 101.336 181.887 100.992 180.735 100.304C179.599 99.616 178.711 98.624 178.071 97.328C177.447 96.032 177.135 94.472 177.135 92.648C177.135 90.856 177.463 89.288 178.119 87.944C178.775 86.6 179.671 85.552 180.807 84.8C181.959 84.048 183.279 83.672 184.767 83.672ZM184.671 84.104C183.631 84.104 182.727 84.464 181.959 85.184C181.191 85.904 180.591 86.896 180.159 88.16C179.743 89.424 179.535 90.888 179.535 92.552C179.535 94.248 179.767 95.728 180.231 96.992C180.711 98.24 181.351 99.208 182.151 99.896C182.967 100.568 183.863 100.904 184.839 100.904C185.879 100.904 186.783 100.544 187.551 99.824C188.319 99.104 188.911 98.112 189.327 96.848C189.759 95.568 189.975 94.104 189.975 92.456C189.975 90.744 189.735 89.264 189.255 88.016C188.791 86.768 188.159 85.808 187.359 85.136C186.559 84.448 185.663 84.104 184.671 84.104ZM212.304 84.008V84.488C211.808 84.552 211.328 84.712 210.864 84.968C210.4 85.224 209.936 85.648 209.472 86.24L204.84 92.168L205.368 90.992L211.128 99.056C211.4 99.456 211.696 99.768 212.016 99.992C212.336 100.216 212.744 100.392 213.24 100.52V101C212.856 100.968 212.376 100.952 211.8 100.952C211.24 100.936 210.76 100.928 210.36 100.928C210.088 100.928 209.752 100.936 209.352 100.952C208.968 100.952 208.48 100.968 207.888 101V100.52C208.432 100.488 208.776 100.392 208.92 100.232C209.064 100.072 209.008 99.808 208.752 99.44L205.248 94.16C204.928 93.664 204.64 93.296 204.384 93.056C204.144 92.8 203.888 92.632 203.616 92.552C203.36 92.472 203.032 92.424 202.632 92.408V91.928C203.304 91.912 203.864 91.784 204.312 91.544C204.776 91.288 205.16 90.968 205.464 90.584L207.768 87.656C208.296 86.984 208.656 86.416 208.848 85.952C209.04 85.488 209.032 85.136 208.824 84.896C208.616 84.64 208.176 84.504 207.504 84.488V84.008C207.808 84.024 208.12 84.04 208.44 84.056C208.76 84.056 209.072 84.064 209.376 84.08C209.696 84.08 209.992 84.08 210.264 84.08C210.68 84.08 211.064 84.072 211.416 84.056C211.768 84.04 212.064 84.024 212.304 84.008ZM204.672 84.008V84.488C204.128 84.504 203.712 84.568 203.424 84.68C203.152 84.776 202.968 84.968 202.872 85.256C202.776 85.528 202.728 85.96 202.728 86.552V98.456C202.728 99.032 202.776 99.464 202.872 99.752C202.968 100.04 203.152 100.232 203.424 100.328C203.712 100.424 204.128 100.488 204.672 100.52V101C204.304 100.968 203.84 100.952 203.28 100.952C202.736 100.936 202.184 100.928 201.624 100.928C201 100.928 200.416 100.936 199.872 100.952C199.328 100.952 198.888 100.968 198.552 101V100.52C199.096 100.488 199.504 100.424 199.776 100.328C200.064 100.232 200.256 100.04 200.352 99.752C200.448 99.464 200.496 99.032 200.496 98.456V86.552C200.496 85.96 200.448 85.528 200.352 85.256C200.256 84.968 200.064 84.776 199.776 84.68C199.504 84.568 199.096 84.504 198.552 84.488V84.008C198.888 84.024 199.328 84.04 199.872 84.056C200.416 84.072 201 84.08 201.624 84.08C202.184 84.08 202.736 84.072 203.28 84.056C203.84 84.04 204.304 84.024 204.672 84.008Z" fill="#1C2B01"/>
<path d="M223 91H262" stroke="black"/>
<path d="M0 91H39" stroke="black"/>
</svg>
